<svg width="100" height="100" viewBox="0 0 100 100" fill="none" xmlns="http://www.w3.org/2000/svg">
<path d="M76.5176 75.2058L21.196 75.2058C1.36761 75.2058 2.74958 47.0941 22.599 47.0941C22.599 26.9638 56.4569 24.8813 56.4569 47.0942C63.3667 42.2352 70.2765 48.4826 68.7184 54.3819C85.478 50.5651 86.6838 75.2058 76.5176 75.2058Z" stroke="white" stroke-linecap="round"/>
<path d="M77.7184 47.3819C94.478 43.5651 95.6838 68.2058 85.5176 68.2058H82.8665C83.8428 61.244 79.4976 51.9271 68.7184 54.3819C70.2765 48.4826 63.3667 42.2352 56.4569 47.0942C56.4569 33.5298 43.3314 29.0735 33.5 32.2058C40.641 19.5288 65.4569 21.0773 65.4569 40.0942C72.3667 35.2352 79.2765 41.4826 77.7184 47.3819Z" fill="white" fill-opacity="0.2" stroke="white" stroke-linecap="round"/>
</svg>
