<svg width="100" height="100" viewBox="0 0 100 100" fill="none" xmlns="http://www.w3.org/2000/svg">
<path d="M74.5176 81.9999L19.196 81.9999C-0.632392 81.9999 0.749582 53.8882 20.599 53.8882C20.599 33.7579 54.4569 31.6753 54.4569 53.8883C61.3667 49.0293 68.2765 55.2767 66.7184 61.176C83.478 57.3592 84.6838 81.9999 74.5176 81.9999Z" stroke="white" stroke-linecap="round"/>
<path d="M72.4757 60.9999C77.9149 58.3272 81.6539 52.7696 81.6539 46.3467C81.6539 37.3186 74.2666 29.9999 65.1539 29.9999C57.5604 29.9999 50.9214 34.5818 49 41.4999" stroke="white" stroke-linecap="round"/>
<line x1="57.2613" y1="25.6747" x2="54.7012" y2="18.6408" stroke="white" stroke-linecap="round"/>
<line x1="82" y1="31.2929" x2="87.2929" y2="26" stroke="white" stroke-linecap="round"/>
<line x1="86.5792" y1="53.5944" x2="93.9508" y2="54.8942" stroke="white" stroke-linecap="round"/>
<path d="M65.5545 32C58.4114 32 52.3929 36.6557 50.5676 43M68.2766 60C73.478 58.5646 77.5662 54.5769 79 49.527" stroke="white" stroke-linecap="round"/>
<path d="M60.0018 35.0271C56.8935 36.3849 54.4211 38.8609 53.1351 41.9236" stroke="white" stroke-linecap="round"/>
</svg>
