<svg width="100" height="100" viewBox="0 0 100 100" fill="none" xmlns="http://www.w3.org/2000/svg">
<path d="M71.5176 73.2058L16.196 73.2058C-3.63239 73.2058 -2.25042 45.0941 17.599 45.0941C17.599 24.9638 51.4569 22.8813 51.4569 45.0942C58.3667 40.2352 65.2765 46.4826 63.7184 52.3819C80.478 48.5651 81.6838 73.2058 71.5176 73.2058Z" stroke="white" stroke-linecap="round"/>
<path d="M72.7184 45.3819C89.478 41.5651 90.6838 66.2058 80.5176 66.2058H77.8665C78.8428 59.244 74.4976 49.9271 63.7184 52.3819C65.2765 46.4826 58.3667 40.2352 51.4569 45.0942C51.4569 31.5298 38.3314 27.0735 28.5 30.2058C35.641 17.5288 60.4569 19.0773 60.4569 38.0942C67.3667 33.2352 74.2765 39.4826 72.7184 45.3819Z" fill="white" fill-opacity="0.2" stroke="white" stroke-linecap="round"/>
<path d="M22 93.5217C22 95.4427 20.433 97 18.5 97C16.567 97 15 95.4427 15 93.5217C15 91.6008 18.5 87.2609 18.5 81C18.5 87.2609 22 91.6008 22 93.5217Z" stroke="white" stroke-linecap="round"/>
<path d="M66 93.5217C66 95.4427 64.433 97 62.5 97C60.567 97 59 95.4427 59 93.5217C59 91.6008 62.5 87.2609 62.5 81C62.5 87.2609 66 91.6008 66 93.5217Z" stroke="white" stroke-linecap="round"/>
<path d="M44 93.5217C44 95.4427 42.433 97 40.5 97C38.567 97 37 95.4427 37 93.5217C37 91.6008 40.5 87.2609 40.5 81C40.5 87.2609 44 91.6008 44 93.5217Z" stroke="white" stroke-linecap="round"/>
<path d="M78.4757 45C83.9149 42.3273 87.6539 36.7696 87.6539 30.3467C87.6539 21.3187 80.2666 14 71.1539 14C63.5604 14 56.9214 18.5818 55 25.5" stroke="white" stroke-linecap="round"/>
<line x1="64.2613" y1="11.6747" x2="61.7012" y2="4.64084" stroke="white" stroke-linecap="round"/>
<line x1="86" y1="17.2929" x2="91.2929" y2="12" stroke="white" stroke-linecap="round"/>
<line x1="90.5792" y1="34.5944" x2="97.9508" y2="35.8942" stroke="white" stroke-linecap="round"/>
<path d="M71.987 16C64.8438 16 58.8253 20.6557 57 27M74.709 44C79.9104 42.5646 83.9986 38.5769 85.4324 33.527" stroke="white" stroke-linecap="round"/>
<path d="M66.4343 19.0271C63.3259 20.3849 60.8536 22.8609 59.5676 25.9236" stroke="white" stroke-linecap="round"/>
</svg>
