<svg width="100" height="100" viewBox="0 0 100 100" fill="none" xmlns="http://www.w3.org/2000/svg">
<path d="M71.3181 50C71.3181 61.7737 61.7736 71.3182 49.9999 71.3182C38.2262 71.3182 28.6818 61.7737 28.6818 50C28.6818 38.2263 38.2262 28.6818 49.9999 28.6818C61.7736 28.6818 71.3181 38.2263 71.3181 50Z" stroke="white" stroke-linecap="round"/>
<path d="M31 50.8742C31 39.898 39.8851 31 50.8454 31M54.3184 68C60.9547 66.1032 66.1707 60.8337 68 54.1607" stroke="white" stroke-linecap="round"/>
<path d="M43.761 35C39.7952 36.7942 36.6408 40.0661 35 44.1133" stroke="white" stroke-linecap="round"/>
<path d="M76 50L91 50" stroke="white" stroke-linecap="round"/>
<path d="M9 50L24 50" stroke="white" stroke-linecap="round"/>
<path d="M50 23.8182V8.81818" stroke="white" stroke-linecap="round"/>
<path d="M50 91V76" stroke="white" stroke-linecap="round"/>
<path d="M69 31.0711L76.0711 24" stroke="white" stroke-linecap="round"/>
<path d="M69 69L76.0711 76.0711" stroke="white" stroke-linecap="round"/>
<path d="M24 24L31.0711 31.0711" stroke="white" stroke-linecap="round"/>
<path d="M24 76.0711L31.0711 69" stroke="white" stroke-linecap="round"/>
</svg>
