<svg width="100" height="100" viewBox="0 0 100 100" fill="none" xmlns="http://www.w3.org/2000/svg">
<path d="M77.4011 28.2934C77.4011 28.0969 77.5727 27.8583 77.8403 27.6829C78.2726 27.4023 79.4116 27.6478 79.8714 28.118C79.9674 28.2162 80.0086 28.3565 80.0086 28.553C80.0086 28.7565 80.0635 28.9108 80.187 29.0792C80.434 29.416 80.3723 29.6125 79.94 29.837C79.5557 30.0335 79.0411 30.0686 78.6843 29.9142C78.2794 29.7388 77.4011 28.6372 77.4011 28.2934Z" fill="white" fill-opacity="0.2" stroke="white" stroke-width="5"/>
<path d="M70.1413 28.4618C70.2854 28.3636 70.5119 28.1321 70.6423 27.9567C70.7795 27.7742 70.9442 27.6269 71.0128 27.6269C71.0745 27.6269 71.2255 27.7672 71.3422 27.9356C71.5206 28.1882 71.6304 28.2654 71.9529 28.3776C72.1724 28.4478 72.338 28.5057 72.3783 28.5881C72.4186 28.6706 72.1656 28.9039 71.8842 29.1916C71.3079 29.7529 71.2392 29.9704 71.5 30.3072C71.6098 30.4546 71.7058 30.4896 72.0558 30.5177C72.5087 30.5528 72.5636 30.5949 72.6322 31.0089C72.6871 31.3386 73.0919 31.7105 73.5242 31.8368C73.8742 31.9351 73.9702 31.893 74.1075 31.5562C74.1624 31.4158 74.279 31.3176 74.4917 31.2334C74.6564 31.1702 74.9103 30.9948 75.0613 30.8475C75.3014 30.6019 75.37 30.5738 75.6857 30.5738C76.1248 30.5738 76.4336 30.7352 76.9277 31.2264L77.3119 31.6053L78.1628 31.6404C78.9176 31.6754 79.0823 31.7035 79.6655 31.921C80.7085 32.321 80.7154 32.321 81.0242 31.9701C81.2712 31.7035 81.3124 31.6825 81.5319 31.7246C81.9436 31.8017 82.2181 32.0473 82.472 32.5595C82.6847 32.9805 82.7122 33.1068 82.7465 33.7664C82.7876 34.454 82.8014 34.5172 82.9729 34.6645C83.2062 34.868 83.316 35.1066 83.5356 35.8714C83.7483 36.6151 83.7552 36.8537 83.5836 37.1203C83.3915 37.422 82.822 37.8079 82.6161 37.7869C82.4449 37.7659 82.4446 37.7588 82.4104 36.9632L82.4102 36.9589L82.3759 36.152L81.8544 36.1731C81.2437 36.2011 80.9899 36.1029 80.2556 35.5416C79.693 35.1136 79.2607 34.5663 79.0891 34.0751C79.0205 33.8787 78.9176 33.7032 78.8558 33.6822C78.7941 33.6541 78.65 33.7524 78.4784 33.9418C78.1422 34.2996 77.8609 34.433 77.4149 34.433C76.9688 34.433 76.7836 34.6084 76.7836 35.0153C76.7904 35.5907 77.1129 36.0538 77.8471 36.5239C78.4441 36.9028 79.3362 37.2887 79.8028 37.3729C80.3654 37.4711 80.5438 37.5974 80.7977 38.1167C81.0928 38.7201 81.0859 39.2955 80.7703 39.8498C80.6056 40.1515 80.5507 40.3269 80.5576 40.5514C80.5781 41.1338 80.5644 41.1408 79.8645 40.776C79.2264 40.4532 78.7941 40.0252 78.4647 39.4077C77.9775 38.5026 77.5933 38.3482 77.2639 38.9236C76.9894 39.4077 76.3856 39.5621 76.0631 39.2253C75.9258 39.085 75.9602 38.8324 76.214 38.1167C76.4679 37.422 76.4885 37.0431 76.3032 36.7976C76.1317 36.573 75.8023 36.3836 75.672 36.4327C75.6239 36.4537 75.5073 36.6151 75.4112 36.7976C75.2054 37.1905 74.924 37.3799 74.5329 37.3799C74.1281 37.3799 73.7575 37.1694 73.2497 36.6362C72.5841 35.9485 72.3714 35.4363 72.2067 34.1172C72.1381 33.584 72.0489 33.5629 71.4451 33.9348C70.5119 34.5101 69.6542 34.7277 68.9405 34.5733C68.419 34.468 68.172 34.2435 68.0416 33.7734C67.925 33.3594 67.7809 33.2261 67.328 33.1068C67.0947 33.0367 66.834 32.8753 66.834 32.7911C66.834 32.777 66.882 32.6507 66.9369 32.5174C66.9918 32.3771 67.0673 32.0403 67.1084 31.7667C67.2319 30.8966 67.3555 30.7563 68.323 30.4265C68.6455 30.3142 68.9748 30.1669 69.0503 30.0967C69.1258 30.0336 69.3042 29.7248 69.4483 29.4161C69.7502 28.7636 69.7983 28.6934 70.1413 28.4618Z" fill="white" fill-opacity="0.2" stroke="white" stroke-width="5"/>
<path d="M61.6945 32.5806C61.8866 32.4964 63.2315 32.1526 64.1236 31.9561C64.199 31.935 64.5559 31.921 64.9127 31.914C65.6949 31.907 66.0723 32.0473 66.2576 32.4052C66.3193 32.5315 66.4772 33.0437 66.6075 33.5348C66.9163 34.7277 66.9232 34.7206 65.8253 34.9943C65.1117 35.1697 64.8921 35.3241 64.7823 35.738C64.5558 36.566 64.8166 36.8817 65.8253 36.994C66.2301 37.0431 66.4223 37.1624 66.4223 37.3729C66.4223 37.5203 66.0929 38.1728 65.64 38.9166C65.4685 39.2042 65.3381 39.4498 65.3518 39.4638C65.3655 39.4779 65.5096 39.4077 65.6743 39.3095C65.9213 39.1692 66.0723 39.1341 66.4772 39.1341C67.0467 39.1341 67.2388 39.0569 67.6025 38.664C67.9113 38.3342 68.1308 37.9062 68.1789 37.5483C68.2406 37.1133 68.3367 36.9238 68.5563 36.7905C69.0709 36.4748 70.0933 36.3695 70.5942 36.573C71.1089 36.7835 71.3696 37.6676 71.0265 38.0395C70.8138 38.264 70.3198 38.4815 69.7914 38.5657C69.3248 38.6429 69.0092 38.8113 68.5631 39.2323C68.0622 39.7024 67.925 40.1445 68.2201 40.355C68.4396 40.5093 68.6867 40.4953 69.1121 40.2918C69.8669 39.934 70.9236 40.1725 70.4982 40.6076C70.4296 40.6847 70.0453 40.9233 69.6473 41.1408C68.8788 41.5618 68.4808 41.8355 68.4808 41.9407C68.4808 41.9758 68.6592 42.0951 68.8788 42.2073C69.2082 42.3757 69.2699 42.4389 69.2905 42.6143C69.3179 42.902 69.1052 43.0844 68.371 43.4072C67.6025 43.744 67.5476 43.8843 68.0828 44.1018C68.2818 44.186 68.6798 44.2842 68.9611 44.3263C69.565 44.4176 69.7365 44.5158 69.9218 44.8807C70.0933 45.2385 70.2374 45.2736 70.6697 45.0982C70.8687 45.021 71.0814 44.9578 71.1569 44.9578C71.4451 44.9578 71.5 45.3999 71.3285 46.312C71.2392 46.7822 71.2392 46.8944 71.3216 47.0979C71.4725 47.4698 71.699 47.582 72.2068 47.5329C72.4401 47.5119 72.7008 47.4698 72.7832 47.4417C73.0645 47.3575 73.0439 47.5961 72.7077 48.3188C72.5361 48.6977 72.392 49.0906 72.392 49.1888C69.0071 45.6955 66.5961 45.4111 61.5 47.5C61.2537 43.8247 60.7717 41.8761 58.9279 38.7207C59.1167 38.5381 59.3239 38.258 59.4507 37.9904C59.732 37.3799 59.7457 37.0852 59.5261 36.3344C59.3134 35.5907 59.334 35.3662 59.6428 35.0995C59.8006 34.9592 59.9241 34.9241 60.1986 34.9241C60.3976 34.9241 60.5897 34.896 60.6309 34.868C60.7681 34.7768 60.8436 34.5452 60.8916 34.1172C61.0014 33.1559 61.1867 32.7981 61.6945 32.5806Z" fill="white" fill-opacity="0.2"/>
<path d="M58.936 34.9311C58.4694 36.1661 58.4008 36.4818 58.3528 37.4852L57.5362 36.9238C57.5843 36.6923 57.646 36.3134 57.6735 36.0819C57.7009 35.8503 57.797 35.4644 57.893 35.2188C58.2087 34.4119 58.8743 33.5208 59.1625 33.5208C59.3752 33.5208 59.3066 33.9348 58.936 34.9311Z" fill="white" fill-opacity="0.2"/>
<path d="M61.6945 32.5806C61.8866 32.4964 63.2315 32.1526 64.1236 31.9561C64.199 31.935 64.5559 31.921 64.9127 31.914C65.6949 31.907 66.0723 32.0473 66.2576 32.4052C66.3193 32.5315 66.4772 33.0437 66.6075 33.5348C66.9163 34.7277 66.9232 34.7206 65.8253 34.9943C65.1117 35.1697 64.8921 35.3241 64.7823 35.738C64.5558 36.566 64.8166 36.8817 65.8253 36.994C66.2301 37.0431 66.4223 37.1624 66.4223 37.3729C66.4223 37.5203 66.0929 38.1728 65.64 38.9166C65.4685 39.2042 65.3381 39.4498 65.3518 39.4638C65.3655 39.4779 65.5096 39.4077 65.6743 39.3095C65.9213 39.1692 66.0723 39.1341 66.4772 39.1341C67.0467 39.1341 67.2388 39.0569 67.6025 38.664C67.9113 38.3342 68.1308 37.9062 68.1789 37.5483C68.2406 37.1133 68.3367 36.9238 68.5563 36.7905C69.0709 36.4748 70.0933 36.3695 70.5942 36.573C71.1089 36.7835 71.3696 37.6676 71.0265 38.0395C70.8138 38.264 70.3198 38.4815 69.7914 38.5657C69.3248 38.6429 69.0092 38.8113 68.5631 39.2323C68.0622 39.7024 67.925 40.1445 68.2201 40.355C68.4396 40.5093 68.6867 40.4953 69.1121 40.2918C69.8669 39.934 70.9236 40.1725 70.4982 40.6076C70.4296 40.6847 70.0453 40.9233 69.6473 41.1408C68.8788 41.5618 68.4808 41.8355 68.4808 41.9407C68.4808 41.9758 68.6592 42.0951 68.8788 42.2073C69.2082 42.3757 69.2699 42.4389 69.2905 42.6143C69.3179 42.902 69.1052 43.0844 68.371 43.4072C67.6025 43.744 67.5476 43.8843 68.0828 44.1018C68.2818 44.186 68.6798 44.2842 68.9611 44.3263C69.565 44.4176 69.7365 44.5158 69.9218 44.8807C70.0933 45.2385 70.2374 45.2736 70.6697 45.0982C70.8687 45.021 71.0814 44.9578 71.1569 44.9578C71.4451 44.9578 71.5 45.3999 71.3285 46.312C71.2392 46.7822 71.2392 46.8944 71.3216 47.0979C71.4725 47.4698 71.699 47.582 72.2068 47.5329C72.4401 47.5119 72.7008 47.4698 72.7832 47.4417C73.0645 47.3575 73.0439 47.5961 72.7077 48.3188C72.5361 48.6977 72.392 49.0906 72.392 49.1888C69.0071 45.6955 66.5961 45.4111 61.5 47.5C61.2537 43.8247 60.7717 41.8761 58.9279 38.7207C59.1167 38.5381 59.3239 38.258 59.4507 37.9904C59.732 37.3799 59.7457 37.0852 59.5261 36.3344C59.3134 35.5907 59.334 35.3662 59.6428 35.0995C59.8006 34.9592 59.9241 34.9241 60.1986 34.9241C60.3976 34.9241 60.5897 34.896 60.6309 34.868C60.7681 34.7768 60.8436 34.5452 60.8916 34.1172C61.0014 33.1559 61.1867 32.7981 61.6945 32.5806Z" stroke="white" stroke-width="5"/>
<path d="M58.936 34.9311C58.4694 36.1661 58.4008 36.4818 58.3528 37.4852L57.5362 36.9238C57.5843 36.6923 57.646 36.3134 57.6735 36.0819C57.7009 35.8503 57.797 35.4644 57.893 35.2188C58.2087 34.4119 58.8743 33.5208 59.1625 33.5208C59.3752 33.5208 59.3066 33.9348 58.936 34.9311Z" stroke="white" stroke-width="5"/>
<path d="M81.5176 76L26.196 76C6.36761 76 7.74958 47.8883 27.599 47.8883C27.599 27.7579 61.4569 25.6754 61.4569 47.8884C68.3667 43.0294 75.2765 49.2768 73.7184 55.1761C90.478 51.3593 91.6838 76 81.5176 76Z" stroke="white" stroke-linecap="round"/>
<path d="M79.4757 55C84.9149 52.3273 88.6539 46.7696 88.6539 40.3468C88.6539 31.3187 81.2666 24 72.1539 24C64.5604 24 57.9214 28.5819 56 35.5" stroke="white" stroke-linecap="round"/>
</svg>
