<svg width="100" height="100" viewBox="0 0 100 100" fill="none" xmlns="http://www.w3.org/2000/svg">
<path d="M71.3181 50C71.3181 61.7737 61.7736 71.3182 49.9999 71.3182C38.2262 71.3182 28.6818 61.7737 28.6818 50C28.6818 38.2263 38.2262 28.6818 49.9999 28.6818C61.7736 28.6818 71.3181 38.2263 71.3181 50Z" stroke="white" stroke-linecap="round"/>
<path d="M56.9319 33.6921C56.9319 33.4399 57.152 33.1337 57.4955 32.9086C58.0503 32.5484 59.5122 32.8636 60.1023 33.4669C60.2256 33.593 60.2784 33.7731 60.2784 34.0253C60.2784 34.2864 60.3488 34.4845 60.5074 34.7007C60.8244 35.1329 60.7451 35.3851 60.1903 35.6732C59.6972 35.9254 59.0367 35.9704 58.5787 35.7723C58.0591 35.5471 56.9319 34.1333 56.9319 33.6921Z" fill="white" fill-opacity="0.2" stroke="white" stroke-width="5"/>
<path d="M47.6145 33.9082C47.7995 33.7821 48.0901 33.485 48.2574 33.2598C48.4335 33.0257 48.6449 32.8366 48.733 32.8366C48.8122 32.8366 49.006 33.0167 49.1557 33.2328C49.3847 33.557 49.5256 33.6561 49.9395 33.8001C50.2213 33.8902 50.4337 33.9645 50.4855 34.0703C50.5372 34.1761 50.2125 34.4755 49.8514 34.8448C49.1116 35.5652 49.0236 35.8443 49.3582 36.2766C49.4991 36.4657 49.6224 36.5107 50.0716 36.5467C50.6528 36.5918 50.7233 36.6458 50.8113 37.1771C50.8818 37.6004 51.4014 38.0776 51.9562 38.2397C52.4053 38.3658 52.5286 38.3118 52.7047 37.8795C52.7752 37.6994 52.9249 37.5733 53.1979 37.4653C53.4093 37.3842 53.7351 37.1591 53.9289 36.97C54.2371 36.6548 54.3252 36.6188 54.7303 36.6188C55.2939 36.6188 55.6902 36.8259 56.3242 37.4563L56.8174 37.9426L57.9094 37.9876C58.8782 38.0326 59.0895 38.0686 59.8381 38.3478C61.1767 38.8611 61.1855 38.8611 61.5818 38.4108C61.8988 38.0686 61.9517 38.0416 62.2335 38.0957C62.7619 38.1947 63.1141 38.5099 63.44 39.1673C63.713 39.7076 63.7482 39.8697 63.7922 40.7162C63.8451 41.5987 63.8627 41.6797 64.0829 41.8688C64.3823 42.13 64.5232 42.4362 64.805 43.4178C65.078 44.3723 65.0868 44.6785 64.8666 45.0207C64.6201 45.4079 63.8891 45.9032 63.6249 45.8762C63.4051 45.8492 63.4047 45.8402 63.3609 44.819L63.3607 44.8136L63.3167 43.778L62.6474 43.805C61.8636 43.841 61.5378 43.7149 60.5954 42.9945C59.8733 42.4452 59.3185 41.7428 59.0983 41.1124C59.0103 40.8603 58.8782 40.6351 58.7989 40.6081C58.7196 40.5721 58.5347 40.6982 58.3145 40.9413C57.883 41.4006 57.5219 41.5717 56.9495 41.5717C56.3771 41.5717 56.1393 41.7968 56.1393 42.3191C56.1481 43.0575 56.562 43.6519 57.5043 44.2552C58.2705 44.7415 59.4154 45.2368 60.0142 45.3449C60.7364 45.4709 60.9653 45.633 61.2912 46.2994C61.6699 47.0739 61.661 47.8123 61.2559 48.5237C61.0446 48.911 60.9741 49.1361 60.9829 49.4243C61.0094 50.1717 60.9917 50.1807 60.0935 49.7124C59.2745 49.2982 58.7196 48.7489 58.2969 47.9564C57.6717 46.7947 57.1785 46.5966 56.7558 47.335C56.4035 47.9564 55.6285 48.1545 55.2146 47.7223C55.0385 47.5422 55.0825 47.218 55.4084 46.2994C55.7342 45.4079 55.7606 44.9216 55.5228 44.6064C55.3027 44.3183 54.88 44.0751 54.7126 44.1382C54.651 44.1652 54.5013 44.3723 54.378 44.6064C54.1138 45.1107 53.7527 45.3539 53.2507 45.3539C52.7312 45.3539 52.2556 45.0837 51.6039 44.3993C50.7497 43.5168 50.4767 42.8594 50.2653 41.1664C50.1772 40.482 50.0628 40.455 49.2878 40.9323C48.0901 41.6707 46.9893 41.9499 46.0734 41.7518C45.4041 41.6167 45.087 41.3285 44.9197 40.7252C44.77 40.1939 44.5851 40.0228 44.0038 39.8697C43.7044 39.7796 43.3698 39.5725 43.3698 39.4644C43.3698 39.4464 43.4314 39.2843 43.5018 39.1132C43.5723 38.9331 43.6692 38.5009 43.722 38.1497C43.8805 37.033 44.0391 36.8529 45.2808 36.4297C45.6947 36.2856 46.1174 36.0965 46.2143 36.0064C46.3112 35.9254 46.5401 35.5292 46.7251 35.1329C47.1126 34.2954 47.1742 34.2054 47.6145 33.9082Z" fill="white" fill-opacity="0.2" stroke="white" stroke-width="5"/>
<path d="M36.7736 39.1943C37.0202 39.0862 38.7463 38.645 39.8912 38.3928C39.988 38.3658 40.446 38.3478 40.9039 38.3388C41.9079 38.3298 42.3922 38.5099 42.63 38.9691C42.7093 39.1312 42.9118 39.7886 43.0791 40.419C43.4754 41.9499 43.4842 41.9409 42.0752 42.2921C41.1593 42.5172 40.8775 42.7153 40.7366 43.2466C40.446 44.3093 40.7806 44.7145 42.0752 44.8586C42.5948 44.9216 42.8414 45.0747 42.8414 45.3449C42.8414 45.534 42.4186 46.3715 41.8374 47.326C41.6172 47.6952 41.4499 48.0104 41.4675 48.0284C41.4851 48.0464 41.6701 47.9564 41.8814 47.8303C42.1985 47.6502 42.3922 47.6052 42.9118 47.6052C43.6428 47.6052 43.8893 47.5061 44.3561 47.0018C44.7524 46.5786 45.0342 46.0293 45.0958 45.57C45.1751 45.0117 45.2984 44.7685 45.5802 44.5974C46.2407 44.1922 47.5529 44.0571 48.1958 44.3183C48.8563 44.5884 49.1909 45.7231 48.7506 46.2004C48.4776 46.4885 47.8435 46.7677 47.1654 46.8757C46.5665 46.9748 46.1614 47.1909 45.589 47.7312C44.9461 48.3346 44.77 48.9019 45.1487 49.1721C45.4305 49.3702 45.7475 49.3522 46.2935 49.091C47.2623 48.6318 48.6185 48.9379 48.0725 49.4963C47.9844 49.5953 47.4912 49.9015 46.9805 50.1807C45.9941 50.721 45.4833 51.0722 45.4833 51.2073C45.4833 51.2523 45.7123 51.4054 45.9941 51.5495C46.4168 51.7656 46.4961 51.8466 46.5225 52.0718C46.5577 52.441 46.2847 52.6751 45.3424 53.0894C44.3561 53.5216 44.2856 53.7017 44.9726 53.9809C45.2279 54.089 45.7387 54.215 46.0998 54.2691C46.8748 54.3861 47.0949 54.5122 47.3327 54.9805C47.5529 55.4397 47.7378 55.4848 48.2926 55.2596C48.548 55.1606 48.821 55.0795 48.9179 55.0795C49.2878 55.0795 49.3582 55.6469 49.1381 56.8175C49.0236 57.4209 49.0236 57.565 49.1293 57.8261C49.323 58.3034 49.6136 58.4475 50.2653 58.3845C50.5647 58.3574 50.8994 58.3034 51.0051 58.2674C51.3661 58.1593 51.3397 58.4655 50.9082 59.393C50.688 59.8793 50.5031 60.3836 50.5031 60.5097C50.5031 60.8069 50.2741 61.077 49.7986 61.3202C49.2173 61.6173 49.0676 61.9775 49.0412 63.2113C49.0236 64.0848 49.006 64.2109 48.821 64.409C48.5833 64.6611 48.1077 64.7782 47.8171 64.6431C47.6586 64.5711 47.5705 64.4 47.4648 64.0217C47.2358 63.1752 47.0861 62.9141 46.5313 62.3918C45.9501 61.8425 45.8268 61.5273 45.9501 60.978C46.1174 60.2035 45.8444 59.2039 45.3336 58.7176C45.0342 58.4295 44.8493 58.4475 44.4706 58.7807C44.1183 59.1049 44.0743 59.4111 44.3385 59.7623C44.5763 60.0774 44.5586 60.4016 44.2504 60.996C43.951 61.5723 43.9246 61.7524 44.1359 62.1036C44.2856 62.3648 44.453 62.4818 45.5626 63.1212C46.2935 63.5445 46.5225 63.7966 46.593 64.2829C46.681 64.8322 46.5842 65.0393 46.1262 65.2645C45.7651 65.4446 45.5626 65.4716 44.6907 65.4806C43.7396 65.4806 43.6516 65.4626 43.2641 65.2374C42.7885 64.9493 42.3394 64.3639 42.2601 63.9317C42.2161 63.6885 42.2513 63.5535 42.4539 63.2563C42.9647 62.5089 43.0175 62.4098 43.0175 62.1306C43.0175 61.7074 42.7181 61.5093 41.9695 61.4462C41.3178 61.3922 41.0184 61.2751 40.8335 61.005C40.7718 60.9149 40.6749 60.8429 40.6221 60.8429C40.5693 60.8429 40.2346 61.113 39.8823 61.4462C39.5301 61.7884 39.0809 62.2117 38.8696 62.3918C38.4733 62.761 38.4909 62.6439 38.667 63.6795C38.7199 63.9587 38.7023 63.9947 38.5349 63.9947C38.0946 63.9947 37.302 63.4274 35.981 62.1667C35.5583 61.7614 34.8714 61.1581 34.4575 60.8249C34.0436 60.5007 33.4711 59.9514 33.1981 59.6092C32.6169 58.8887 31.4632 56.6014 31.1022 55.4397C30.653 53.9899 30.3096 51.3694 30.4241 50.3518C30.4593 50.0546 30.609 49.4062 30.7587 48.9109C31.0053 48.1005 31.0758 47.6412 31.2607 45.8491C31.2959 45.552 31.3752 45.0657 31.4368 44.7685C31.4985 44.4713 31.5777 43.9851 31.613 43.6879C31.6482 43.3907 31.7715 42.8954 31.8948 42.5802C32.2999 41.5446 33.1541 40.401 33.524 40.401C33.797 40.401 33.7089 40.9323 33.2334 42.211C32.6345 43.796 32.5465 44.2012 32.4848 45.4889C32.4232 46.7407 32.52 47.335 32.8018 47.335C33.0572 47.335 33.6209 46.7137 33.8939 46.1373C34.2549 45.3539 34.2725 44.9756 33.9907 44.0121C33.7177 43.0575 33.7441 42.7694 34.1404 42.4272C34.343 42.2471 34.5015 42.202 34.8538 42.202C35.1092 42.202 35.3558 42.166 35.4086 42.13C35.5847 42.0129 35.6816 41.7157 35.7432 41.1664C35.8842 39.9327 36.1219 39.4734 36.7736 39.1943Z" fill="white" fill-opacity="0.2" stroke="white" stroke-width="5"/>
</svg>
