<svg width="100" height="100" viewBox="0 0 100 100" fill="none" xmlns="http://www.w3.org/2000/svg">
<path d="M76.5176 67.2059L21.196 67.2059C1.36761 67.2059 2.74958 39.0942 22.599 39.0942C22.599 18.9638 56.4569 16.8813 56.4569 39.0942C63.3667 34.2353 70.2765 40.4827 68.7184 46.382C85.478 42.5651 86.6838 67.2058 76.5176 67.2059Z" stroke="white" stroke-linecap="round"/>
<path d="M77.7184 39.382C94.478 35.5651 95.6838 60.2058 85.5176 60.2059H82.8665C83.8428 53.2441 79.4976 43.9271 68.7184 46.382C70.2765 40.4827 63.3667 34.2353 56.4569 39.0942C56.4569 25.5299 43.3314 21.0735 33.5 24.2059C40.641 11.5288 65.4569 13.0773 65.4569 32.0942C72.3667 27.2353 79.2765 33.4827 77.7184 39.382Z" fill="white" fill-opacity="0.2" stroke="white" stroke-linecap="round"/>
<path d="M27 87.5218C27 89.4428 25.433 91 23.5 91C21.567 91 20 89.4428 20 87.5218C20 85.6008 23.5 81.2609 23.5 75C23.5 81.2609 27 85.6008 27 87.5218Z" stroke="white" stroke-linecap="round"/>
<path d="M71 87.5218C71 89.4428 69.433 91 67.5 91C65.567 91 64 89.4428 64 87.5218C64 85.6008 67.5 81.2609 67.5 75C67.5 81.2609 71 85.6008 71 87.5218Z" stroke="white" stroke-linecap="round"/>
<path d="M49 87.5218C49 89.4428 47.433 91 45.5 91C43.567 91 42 89.4428 42 87.5218C42 85.6008 45.5 81.2609 45.5 75C45.5 81.2609 49 85.6008 49 87.5218Z" stroke="white" stroke-linecap="round"/>
<path d="M83.4757 39C88.9149 36.3273 92.6539 30.7696 92.6539 24.3468C92.6539 15.3187 85.2666 8 76.1539 8C68.5604 8 61.9214 12.5819 60 19.5" stroke="white" stroke-linecap="round"/>
<path d="M81.4011 12.2934C81.4011 12.0969 81.5727 11.8583 81.8403 11.6829C82.2726 11.4023 83.4116 11.6478 83.8714 12.118C83.9674 12.2162 84.0086 12.3565 84.0086 12.553C84.0086 12.7565 84.0635 12.9108 84.187 13.0792C84.434 13.416 84.3723 13.6125 83.94 13.837C83.5557 14.0335 83.0411 14.0686 82.6843 13.9142C82.2794 13.7388 81.4011 12.6372 81.4011 12.2934Z" fill="white" fill-opacity="0.2" stroke="white" stroke-width="5"/>
<path d="M74.1414 12.4618C74.2855 12.3636 74.5119 12.1321 74.6423 11.9567C74.7795 11.7742 74.9442 11.6269 75.0128 11.6269C75.0746 11.6269 75.2255 11.7672 75.3422 11.9356C75.5206 12.1882 75.6304 12.2654 75.9529 12.3776C76.1725 12.4478 76.338 12.5057 76.3783 12.5881C76.4186 12.6706 76.1656 12.9039 75.8843 13.1916C75.3079 13.7529 75.2393 13.9704 75.5 14.3072C75.6098 14.4546 75.7059 14.4896 76.0558 14.5177C76.5087 14.5528 76.5636 14.5949 76.6322 15.0089C76.6871 15.3386 77.0919 15.7105 77.5242 15.8368C77.8742 15.9351 77.9703 15.893 78.1075 15.5562C78.1624 15.4158 78.279 15.3176 78.4918 15.2334C78.6564 15.1702 78.9103 14.9948 79.0613 14.8475C79.3015 14.6019 79.3701 14.5738 79.6857 14.5738C80.1249 14.5738 80.4336 14.7352 80.9277 15.2264L81.312 15.6053L82.1628 15.6404C82.9176 15.6754 83.0823 15.7035 83.6656 15.921C84.7086 16.321 84.7154 16.321 85.0242 15.9701C85.2712 15.7035 85.3124 15.6825 85.532 15.7246C85.9437 15.8017 86.2181 16.0473 86.472 16.5595C86.6848 16.9805 86.7122 17.1068 86.7465 17.7664C86.7877 18.454 86.8014 18.5172 86.9729 18.6645C87.2062 18.868 87.316 19.1066 87.5356 19.8714C87.7483 20.6151 87.7552 20.8537 87.5836 21.1203C87.3915 21.422 86.822 21.8079 86.6161 21.7869C86.4449 21.7659 86.4446 21.7588 86.4105 20.9632L86.4103 20.9589L86.376 20.152L85.8545 20.1731C85.2438 20.2011 84.9899 20.1029 84.2557 19.5416C83.693 19.1136 83.2607 18.5663 83.0892 18.0751C83.0205 17.8787 82.9176 17.7032 82.8559 17.6822C82.7941 17.6541 82.65 17.7524 82.4785 17.9418C82.1422 18.2996 81.8609 18.433 81.4149 18.433C80.9689 18.433 80.7836 18.6084 80.7836 19.0153C80.7905 19.5907 81.113 20.0538 81.8472 20.5239C82.4442 20.9028 83.3362 21.2887 83.8028 21.3729C84.3655 21.4711 84.5439 21.5974 84.7978 22.1167C85.0928 22.7201 85.086 23.2955 84.7703 23.8498C84.6056 24.1515 84.5507 24.3269 84.5576 24.5514C84.5782 25.1338 84.5645 25.1408 83.8645 24.776C83.2264 24.4532 82.7941 24.0252 82.4647 23.4077C81.9776 22.5026 81.5933 22.3482 81.2639 22.9236C80.9895 23.4077 80.3856 23.5621 80.0631 23.2253C79.9259 23.085 79.9602 22.8324 80.2141 22.1167C80.468 21.422 80.4885 21.0431 80.3033 20.7976C80.1317 20.573 79.8024 20.3836 79.672 20.4327C79.624 20.4537 79.5073 20.6151 79.4112 20.7976C79.2054 21.1905 78.9241 21.3799 78.5329 21.3799C78.1281 21.3799 77.7575 21.1694 77.2498 20.6362C76.5842 19.9485 76.3715 19.4363 76.2068 18.1172C76.1382 17.584 76.049 17.5629 75.4451 17.9348C74.5119 18.5101 73.6542 18.7277 72.9406 18.5733C72.4191 18.468 72.172 18.2435 72.0417 17.7734C71.925 17.3594 71.7809 17.2261 71.328 17.1068C71.0947 17.0367 70.834 16.8753 70.834 16.7911C70.834 16.777 70.882 16.6507 70.9369 16.5174C70.9918 16.3771 71.0673 16.0403 71.1085 15.7667C71.232 14.8966 71.3555 14.7563 72.323 14.4265C72.6455 14.3142 72.9749 14.1669 73.0503 14.0967C73.1258 14.0336 73.3042 13.7248 73.4483 13.4161C73.7503 12.7636 73.7983 12.6934 74.1414 12.4618Z" fill="white" fill-opacity="0.2" stroke="white" stroke-width="5"/>
<path d="M65.6945 16.5806C65.8866 16.4964 67.2316 16.1526 68.1236 15.9561C68.1991 15.935 68.5559 15.921 68.9127 15.914C69.6949 15.907 70.0723 16.0473 70.2576 16.4052C70.3194 16.5315 70.4772 17.0437 70.6076 17.5348C70.9163 18.7277 70.9232 18.7206 69.8253 18.9943C69.1117 19.1697 68.8921 19.3241 68.7823 19.738C68.5559 20.566 68.8166 20.8817 69.8253 20.994C70.2302 21.0431 70.4223 21.1624 70.4223 21.3729C70.4223 21.5203 70.0929 22.1728 69.64 22.9166C69.4685 23.2042 69.3381 23.4498 69.3518 23.4638C69.3656 23.4779 69.5097 23.4077 69.6744 23.3095C69.9214 23.1692 70.0723 23.1341 70.4772 23.1341C71.0467 23.1341 71.2388 23.0569 71.6025 22.664C71.9113 22.3342 72.1309 21.9062 72.1789 21.5483C72.2407 21.1133 72.3367 20.9238 72.5563 20.7905C73.0709 20.4748 74.0934 20.3695 74.5943 20.573C75.1089 20.7835 75.3697 21.6676 75.0266 22.0395C74.8138 22.264 74.3198 22.4815 73.7914 22.5657C73.3248 22.6429 73.0092 22.8113 72.5632 23.2323C72.0623 23.7024 71.925 24.1445 72.2201 24.355C72.4397 24.5093 72.6867 24.4953 73.1121 24.2918C73.8669 23.934 74.9236 24.1725 74.4982 24.6076C74.4296 24.6847 74.0453 24.9233 73.6473 25.1408C72.8788 25.5618 72.4808 25.8355 72.4808 25.9407C72.4808 25.9758 72.6592 26.0951 72.8788 26.2073C73.2082 26.3757 73.2699 26.4389 73.2905 26.6143C73.318 26.902 73.1053 27.0844 72.371 27.4072C71.6025 27.744 71.5476 27.8843 72.0828 28.1018C72.2818 28.186 72.6798 28.2842 72.9612 28.3263C73.565 28.4176 73.7365 28.5158 73.9218 28.8807C74.0934 29.2385 74.2375 29.2736 74.6697 29.0982C74.8687 29.021 75.0815 28.9578 75.1569 28.9578C75.4451 28.9578 75.5 29.3999 75.3285 30.312C75.2393 30.7822 75.2393 30.8944 75.3216 31.0979C75.4726 31.4698 75.699 31.582 76.2068 31.5329C76.4401 31.5119 76.7008 31.4698 76.7832 31.4417C77.0645 31.3575 77.0439 31.5961 76.7077 32.3188C76.5362 32.6977 76.3921 33.0906 76.3921 33.1888C73.0071 29.6955 70.5961 29.4111 65.5 31.5C65.2537 27.8247 64.7718 25.8761 62.9279 22.7207C63.1167 22.5381 63.3239 22.258 63.4507 21.9904C63.732 21.3799 63.7458 21.0852 63.5262 20.3344C63.3135 19.5907 63.334 19.3662 63.6428 19.0995C63.8007 18.9592 63.9242 18.9241 64.1986 18.9241C64.3976 18.9241 64.5898 18.896 64.6309 18.868C64.7682 18.7768 64.8436 18.5452 64.8917 18.1172C65.0015 17.1559 65.1867 16.7981 65.6945 16.5806Z" fill="white" fill-opacity="0.2"/>
<path d="M62.9361 18.9311C62.4695 20.1661 62.4008 20.4818 62.3528 21.4852L61.5363 20.9238C61.5843 20.6923 61.646 20.3134 61.6735 20.0819C61.7009 19.8503 61.797 19.4644 61.8931 19.2188C62.2087 18.4119 62.8743 17.5208 63.1625 17.5208C63.3752 17.5208 63.3066 17.9348 62.9361 18.9311Z" fill="white" fill-opacity="0.2"/>
<path d="M65.6945 16.5806C65.8866 16.4964 67.2316 16.1526 68.1236 15.9561C68.1991 15.935 68.5559 15.921 68.9127 15.914C69.6949 15.907 70.0723 16.0473 70.2576 16.4052C70.3194 16.5315 70.4772 17.0437 70.6076 17.5348C70.9163 18.7277 70.9232 18.7206 69.8253 18.9943C69.1117 19.1697 68.8921 19.3241 68.7823 19.738C68.5559 20.566 68.8166 20.8817 69.8253 20.994C70.2302 21.0431 70.4223 21.1624 70.4223 21.3729C70.4223 21.5203 70.0929 22.1728 69.64 22.9166C69.4685 23.2042 69.3381 23.4498 69.3518 23.4638C69.3656 23.4779 69.5097 23.4077 69.6744 23.3095C69.9214 23.1692 70.0723 23.1341 70.4772 23.1341C71.0467 23.1341 71.2388 23.0569 71.6025 22.664C71.9113 22.3342 72.1309 21.9062 72.1789 21.5483C72.2407 21.1133 72.3367 20.9238 72.5563 20.7905C73.0709 20.4748 74.0934 20.3695 74.5943 20.573C75.1089 20.7835 75.3697 21.6676 75.0266 22.0395C74.8138 22.264 74.3198 22.4815 73.7914 22.5657C73.3248 22.6429 73.0092 22.8113 72.5632 23.2323C72.0623 23.7024 71.925 24.1445 72.2201 24.355C72.4397 24.5093 72.6867 24.4953 73.1121 24.2918C73.8669 23.934 74.9236 24.1725 74.4982 24.6076C74.4296 24.6847 74.0453 24.9233 73.6473 25.1408C72.8788 25.5618 72.4808 25.8355 72.4808 25.9407C72.4808 25.9758 72.6592 26.0951 72.8788 26.2073C73.2082 26.3757 73.2699 26.4389 73.2905 26.6143C73.318 26.902 73.1053 27.0844 72.371 27.4072C71.6025 27.744 71.5476 27.8843 72.0828 28.1018C72.2818 28.186 72.6798 28.2842 72.9612 28.3263C73.565 28.4176 73.7365 28.5158 73.9218 28.8807C74.0934 29.2385 74.2375 29.2736 74.6697 29.0982C74.8687 29.021 75.0815 28.9578 75.1569 28.9578C75.4451 28.9578 75.5 29.3999 75.3285 30.312C75.2393 30.7822 75.2393 30.8944 75.3216 31.0979C75.4726 31.4698 75.699 31.582 76.2068 31.5329C76.4401 31.5119 76.7008 31.4698 76.7832 31.4417C77.0645 31.3575 77.0439 31.5961 76.7077 32.3188C76.5362 32.6977 76.3921 33.0906 76.3921 33.1888C73.0071 29.6955 70.5961 29.4111 65.5 31.5C65.2537 27.8247 64.7718 25.8761 62.9279 22.7207C63.1167 22.5381 63.3239 22.258 63.4507 21.9904C63.732 21.3799 63.7458 21.0852 63.5262 20.3344C63.3135 19.5907 63.334 19.3662 63.6428 19.0995C63.8007 18.9592 63.9242 18.9241 64.1986 18.9241C64.3976 18.9241 64.5898 18.896 64.6309 18.868C64.7682 18.7768 64.8436 18.5452 64.8917 18.1172C65.0015 17.1559 65.1867 16.7981 65.6945 16.5806Z" stroke="white" stroke-width="5"/>
<path d="M62.9361 18.9311C62.4695 20.1661 62.4008 20.4818 62.3528 21.4852L61.5363 20.9238C61.5843 20.6923 61.646 20.3134 61.6735 20.0819C61.7009 19.8503 61.797 19.4644 61.8931 19.2188C62.2087 18.4119 62.8743 17.5208 63.1625 17.5208C63.3752 17.5208 63.3066 17.9348 62.9361 18.9311Z" stroke="white" stroke-width="5"/>
</svg>
