<svg width="100" height="100" viewBox="0 0 100 100" fill="none" xmlns="http://www.w3.org/2000/svg">
<path d="M76.5176 64.2058L21.196 64.2058C1.36761 64.2058 2.74958 36.0941 22.599 36.0941C22.599 15.9638 56.4569 13.8813 56.4569 36.0942C63.3667 31.2352 70.2765 37.4826 68.7184 43.3819C85.478 39.5651 86.6838 64.2058 76.5176 64.2058Z" stroke="white" stroke-linecap="round"/>
<path d="M77.7184 36.3819C94.478 32.5651 95.6838 57.2058 85.5176 57.2058H82.8665C83.8428 50.244 79.4976 40.9271 68.7184 43.3819C70.2765 37.4826 63.3667 31.2352 56.4569 36.0942C56.4569 22.5298 43.3314 18.0735 33.5 21.2058C40.641 8.52878 65.4569 10.0773 65.4569 29.0942C72.3667 24.2352 79.2765 30.4826 77.7184 36.3819Z" fill="white" fill-opacity="0.2" stroke="white" stroke-linecap="round"/>
<path d="M27 84.5217C27 86.4427 25.433 88 23.5 88C21.567 88 20 86.4427 20 84.5217C20 82.6008 23.5 78.2609 23.5 72C23.5 78.2609 27 82.6008 27 84.5217Z" stroke="white" stroke-linecap="round"/>
<path d="M71 84.5217C71 86.4427 69.433 88 67.5 88C65.567 88 64 86.4427 64 84.5217C64 82.6008 67.5 78.2609 67.5 72C67.5 78.2609 71 82.6008 71 84.5217Z" stroke="white" stroke-linecap="round"/>
<path d="M49 84.5217C49 86.4427 47.433 88 45.5 88C43.567 88 42 86.4427 42 84.5217C42 82.6008 45.5 78.2609 45.5 72C45.5 78.2609 49 82.6008 49 84.5217Z" stroke="white" stroke-linecap="round"/>
</svg>
