<svg width="100" height="100" viewBox="0 0 100 100" fill="none" xmlns="http://www.w3.org/2000/svg">
<path d="M76.5176 64.2058L21.196 64.2058C1.36761 64.2058 2.74958 36.0941 22.599 36.0941C22.599 15.9638 56.4569 13.8813 56.4569 36.0942C63.3667 31.2352 70.2765 37.4826 68.7184 43.3819C85.478 39.5651 86.6838 64.2058 76.5176 64.2058Z" stroke="white" stroke-linecap="round"/>
<path d="M77.7184 36.3819C94.478 32.5651 95.6838 57.2058 85.5176 57.2058H82.8665C83.8428 50.244 79.4976 40.9271 68.7184 43.3819C70.2765 37.4826 63.3667 31.2352 56.4569 36.0942C56.4569 22.5298 43.3314 18.0735 33.5 21.2058C40.641 8.52878 65.4569 10.0773 65.4569 29.0942C72.3667 24.2352 79.2765 30.4826 77.7184 36.3819Z" fill="white" fill-opacity="0.2" stroke="white" stroke-linecap="round"/>
<path d="M24.0622 87V78.0556V73" stroke="white" stroke-linecap="round"/>
<path d="M30.1244 83.5L22.3782 79.0278L18 76.5" stroke="white" stroke-linecap="round"/>
<path d="M18 83.5L25.7461 79.0278L30.1244 76.5" stroke="white" stroke-linecap="round"/>
<path d="M46.0622 87V78.0556V73" stroke="white" stroke-linecap="round"/>
<path d="M52.1244 83.5L44.3782 79.0278L40 76.5" stroke="white" stroke-linecap="round"/>
<path d="M40 83.5L47.7461 79.0278L52.1244 76.5" stroke="white" stroke-linecap="round"/>
<path d="M68.0622 87V78.0556V73" stroke="white" stroke-linecap="round"/>
<path d="M74.1244 83.5L66.3782 79.0278L62 76.5" stroke="white" stroke-linecap="round"/>
<path d="M62 83.5L69.7461 79.0278L74.1244 76.5" stroke="white" stroke-linecap="round"/>
</svg>
