<svg width="100" height="100" viewBox="0 0 100 100" fill="none" xmlns="http://www.w3.org/2000/svg">
<path d="M76.5176 63.2058L21.196 63.2058C1.36761 63.2058 2.74958 35.0941 22.599 35.0941C22.599 14.9638 56.4569 12.8813 56.4569 35.0942C63.3667 30.2352 70.2765 36.4826 68.7184 42.3819C85.478 38.5651 86.6838 63.2058 76.5176 63.2058Z" stroke="white" stroke-linecap="round"/>
<path d="M77.7184 35.3819C94.478 31.5651 95.6838 56.2058 85.5176 56.2058H82.8665C83.8428 49.244 79.4976 39.9271 68.7184 42.3819C70.2765 36.4826 63.3667 30.2352 56.4569 35.0942C56.4569 21.5298 43.3314 17.0735 33.5 20.2058C40.641 7.52878 65.4569 9.07726 65.4569 28.0942C72.3667 23.2352 79.2765 29.4826 77.7184 35.3819Z" fill="white" fill-opacity="0.2" stroke="white" stroke-linecap="round"/>
<path d="M24 69L21 79H27L24 89" stroke="white" stroke-linecap="round"/>
<path d="M46 69L43 79H49L46 89" stroke="white" stroke-linecap="round"/>
<path d="M68 69L65 79H71L68 89" stroke="white" stroke-linecap="round"/>
</svg>
