<svg width="100" height="100" viewBox="0 0 100 100" fill="none" xmlns="http://www.w3.org/2000/svg">
<path d="M8.5 50C8.5 39.7988 12.1771 30.4617 18.284 23.2338L45.0503 50L18.284 76.7663C12.1771 69.5384 8.5 60.2012 8.5 50ZM50 45.0503L23.2338 18.284C30.4617 12.1771 39.7988 8.5 50 8.5C60.2012 8.5 69.5384 12.1771 76.7663 18.284L50 45.0503ZM23.2338 81.716L50 54.9498L76.7662 81.716C69.5383 87.8229 60.2012 91.5 50 91.5C39.7988 91.5 30.4617 87.8229 23.2338 81.716ZM81.716 76.7662L54.9498 50L81.716 23.2338C87.8229 30.4617 91.5 39.7988 91.5 50C91.5 60.2012 87.8229 69.5383 81.716 76.7662Z" stroke="#C6C5B9" stroke-width="7"/>
</svg>
