<svg width="100" height="100" viewBox="0 0 100 100" fill="none" xmlns="http://www.w3.org/2000/svg">
<circle cx="50" cy="50" r="50" fill="#C4C4C4" fill-opacity="0.25"/>
<path d="M8.5 50C8.5 38.5391 13.1412 28.1689 20.6551 20.6551C28.1689 13.1412 38.5391 8.5 50 8.5C61.4609 8.5 71.8311 13.1412 79.3449 20.6551C86.8588 28.1689 91.5 38.5391 91.5 50C91.5 61.4609 86.8588 71.8311 79.3449 79.3449C71.8311 86.8588 61.4609 91.5 50 91.5C38.5391 91.5 28.1689 86.8588 20.6551 79.3449C13.1412 71.8311 8.5 61.4609 8.5 50Z" stroke="#C6C5B9" stroke-width="7"/>
<path d="M18.1802 18.1802L81.8198 81.8198M81.8198 18.1802L18.1802 81.8198" stroke="#C6C5B9" stroke-width="7"/>
</svg>
